<svg width="266" height="133" viewBox="0 0 266 133" fill="none" xmlns="http://www.w3.org/2000/svg">
<path d="M199.524 6.78494e-07H66.5048C55.541 -0.00156542 44.747 2.70803 35.0837 7.88754C25.4203 13.0671 17.1875 20.5558 11.1182 29.687C5.04894 38.8182 1.33147 49.3086 0.296792 60.2242C-0.737891 71.1398 0.942319 82.1419 5.18784 92.251C9.43335 102.36 16.1124 111.262 24.6305 118.166C33.1485 125.069 43.2411 129.758 54.0099 131.817C64.7786 133.876 75.8893 133.24 86.3527 129.966C96.8162 126.691 106.308 120.88 113.982 113.05H152.018C159.691 120.879 169.182 126.69 179.644 129.964C190.106 133.239 201.215 133.876 211.983 131.819C222.751 129.761 232.843 125.073 241.361 118.172C249.879 111.271 256.559 102.371 260.807 92.2644C265.054 82.1573 266.736 71.1569 265.705 60.2423C264.673 49.3276 260.959 38.8374 254.894 29.7052C248.828 20.573 240.599 13.0822 230.939 7.89957C221.278 2.71694 210.487 0.00323156 199.524 6.78494e-07ZM103.077 71.4875C103.077 72.8103 102.552 74.0789 101.616 75.0142C100.681 75.9495 99.4127 76.475 98.09 76.475H76.479V98.0875C76.479 99.4103 75.9536 100.679 75.0183 101.614C74.0831 102.55 72.8146 103.075 71.4919 103.075H61.5176C60.1949 103.075 58.9264 102.55 57.9912 101.614C57.0559 100.679 56.5305 99.4103 56.5305 98.0875V76.475H34.9195C33.5968 76.475 32.3283 75.9495 31.3931 75.0142C30.4578 74.0789 29.9324 72.8103 29.9324 71.4875V61.5125C29.9324 60.1897 30.4578 58.9211 31.3931 57.9858C32.3283 57.0505 33.5968 56.525 34.9195 56.525H56.5305V34.9125C56.5305 33.5897 57.0559 32.3211 57.9912 31.3858C58.9264 30.4505 60.1949 29.925 61.5176 29.925H71.4919C72.8146 29.925 74.0831 30.4505 75.0183 31.3858C75.9536 32.3211 76.479 33.5897 76.479 34.9125V56.525H98.09C99.4127 56.525 100.681 57.0505 101.616 57.9858C102.552 58.9211 103.077 60.1897 103.077 61.5125V71.4875ZM192.846 103.075C189.558 103.075 186.344 102.1 183.61 100.273C180.876 98.4464 178.746 95.8499 177.487 92.8121C176.229 89.7743 175.9 86.4316 176.541 83.2066C177.183 79.9817 178.766 77.0194 181.091 74.6944C183.416 72.3693 186.378 70.7859 189.603 70.1444C192.827 69.503 196.17 69.8322 199.207 71.0905C202.245 72.3488 204.841 74.4797 206.668 77.2136C208.495 79.9476 209.47 83.1619 209.47 86.45C209.47 90.8592 207.718 95.0879 204.601 98.2057C201.483 101.323 197.255 103.075 192.846 103.075ZM219.444 63.175C216.156 63.175 212.942 62.2 210.208 60.3732C207.474 58.5464 205.344 55.9499 204.085 52.9121C202.827 49.8743 202.498 46.5316 203.139 43.3066C203.781 40.0817 205.364 37.1194 207.689 34.7943C210.014 32.4693 212.976 30.8859 216.201 30.2444C219.425 29.603 222.768 29.9322 225.805 31.1905C228.843 32.4488 231.439 34.5797 233.266 37.3136C235.093 40.0476 236.068 43.2619 236.068 46.55C236.068 50.9592 234.316 55.1879 231.199 58.3057C228.081 61.4234 223.853 63.175 219.444 63.175Z" fill="#E4E4E4"/>
</svg>
