<svg width="193" height="170" viewBox="0 0 193 170" fill="none" xmlns="http://www.w3.org/2000/svg">
<path d="M162.981 35.156C137.204 18.088 102.943 14.203 74.4824 19.3506C42.6408 -11.4275 6.95938 2.72922 0 6.79893C0 6.79893 24.4868 27.6512 20.5096 45.9145C-8.48059 75.5307 5.30079 108.505 20.5096 124.075C24.4868 142.338 0 163.191 0 163.191C6.89236 167.274 42.4767 181.387 74.4824 150.767C102.879 155.881 137.14 152.029 162.981 134.931C202.941 109.364 203.072 60.8536 162.981 35.1526V35.156ZM98.5705 134.766C88.6051 134.795 78.6792 133.512 69.0476 130.949L62.4233 137.359C58.7438 140.935 54.6237 144.025 50.1631 146.556C44.7513 149.287 38.8721 150.965 32.8367 151.502C33.1718 150.904 33.4667 150.307 33.7649 149.742C40.3925 137.43 42.1796 126.384 39.126 116.604C28.2262 108.004 21.7024 97.0142 21.7024 84.9965C21.7024 57.4621 56.1273 35.156 98.5705 35.156C141.014 35.156 175.439 57.4621 175.439 84.9965C175.439 112.531 141.014 134.766 98.5705 134.766ZM61.6928 96.8497C58.6497 96.8928 55.7137 95.7253 53.528 93.6029C51.3424 91.4805 50.0854 88.5765 50.0325 85.527C49.7979 70.2857 72.7602 69.9533 72.9914 85.161V85.3323C73.0055 86.8327 72.7244 88.3211 72.164 89.7126C71.6037 91.104 70.7752 92.3711 69.7259 93.4414C68.6765 94.5117 67.4269 95.3642 66.0485 95.9502C64.6702 96.5362 63.1901 96.8441 61.6928 96.8564V96.8497ZM86.4109 85.527C86.1462 70.2857 109.108 69.9197 109.373 85.1274V85.3323C109.504 100.469 86.6756 100.634 86.4109 85.527ZM134.453 96.8497C131.41 96.8928 128.473 95.7254 126.287 93.6031C124.101 91.4808 122.843 88.5768 122.789 85.527C122.558 70.2857 145.52 69.9533 145.752 85.161V85.3323C145.771 86.834 145.493 88.3246 144.934 89.7183C144.376 91.1119 143.547 92.3809 142.497 93.4522C141.447 94.5235 140.195 95.3758 138.815 95.9601C137.434 96.5444 135.952 96.849 134.453 96.8564V96.8497Z" fill="#2D2D2D"/>
</svg>
