<?xml version="1.0" encoding="UTF-8" standalone="no"?>
<!-- Created with Inkscape (http://www.inkscape.org/) -->

<svg
   width="1.5459902in"
   height="1.5591242in"
   viewBox="0 0 39.268152 39.601755"
   version="1.1"
   id="svg5"
   inkscape:version="1.1.2 (0a00cf5339, 2022-02-04)"
   sodipodi:docname="logo.svg"
   xmlns:inkscape="http://www.inkscape.org/namespaces/inkscape"
   xmlns:sodipodi="http://sodipodi.sourceforge.net/DTD/sodipodi-0.dtd"
   xmlns="http://www.w3.org/2000/svg"
   xmlns:svg="http://www.w3.org/2000/svg">
  <sodipodi:namedview
     id="namedview7"
     pagecolor="#ffffff"
     bordercolor="#666666"
     borderopacity="1.0"
     inkscape:pageshadow="2"
     inkscape:pageopacity="0.0"
     inkscape:pagecheckerboard="true"
     inkscape:document-units="mm"
     showgrid="false"
     fit-margin-top="0"
     fit-margin-left="0"
     fit-margin-right="0"
     fit-margin-bottom="0"
     units="in"
     inkscape:zoom="4"
     inkscape:rotation="-1"
     inkscape:cx="41.813996"
     inkscape:cy="72.349817"
     inkscape:window-width="1846"
     inkscape:window-height="1016"
     inkscape:window-x="74"
     inkscape:window-y="27"
     inkscape:window-maximized="1"
     inkscape:current-layer="layer1" />
  <defs
     id="defs2" />
  <g
     inkscape:label="Layer 1"
     inkscape:groupmode="layer"
     id="layer1"
     transform="translate(-118.03412,-71.439633)">
    <path
       style="fill:#000000;stroke-width:0.264583"
       d="m 128.39659,110.57989 c -3.034,-1.04796 -4.81787,-3.49547 -4.81525,-6.60663 0.002,-2.08607 0.34799,-3.46596 1.21383,-4.837544 0.35022,-0.55479 0.63677,-1.0468 0.63677,-1.09335 0,-0.0465 -0.98226,-0.0865 -2.18281,-0.0887 -2.55488,-0.005 -3.95745,-0.539034 -4.7266,-1.800351 -0.51023,-0.836716 -0.64058,-1.907998 -0.29643,-2.43617 0.10691,-0.164081 0.68781,-0.380778 1.29088,-0.48155 0.9031,-0.150907 1.15977,-0.09521 1.45521,0.315749 0.19729,0.274436 0.56707,0.576694 0.82173,0.671684 0.25466,0.09499 0.46302,0.355039 0.46302,0.57789 0,0.871823 2.45522,0.140618 3.79499,-1.130213 1.49309,-1.416269 2.28293,-3.482739 3.07946,-8.056893 0.66553,-3.821857 1.55431,-6.017064 2.43756,-6.020518 0.36527,-0.0014 0.88594,0.333482 1.29821,0.835045 0.67587,0.822244 0.71021,0.831926 1.89372,0.533915 0.89063,-0.224264 1.7649,-0.228215 3.34825,-0.01513 l 2.14287,0.288386 0.76592,-0.819916 c 0.42125,-0.450954 0.8921,-0.819916 1.04633,-0.819916 0.9272,0 2.17761,2.652628 2.70319,5.734532 0.50466,2.95929 1.48114,5.672301 2.55467,7.09776 1.02814,1.365213 3.02958,2.599803 4.7666,2.940296 0.75641,0.148272 0.8599,0.09989 0.8599,-0.401984 0,-0.313801 0.17406,-0.637339 0.3868,-0.718976 0.21275,-0.08164 0.45696,-0.369465 0.54271,-0.63962 0.18652,-0.58769 1.08555,-0.926373 1.53058,-0.576601 0.17492,0.13748 0.63123,0.324606 1.01402,0.41584 0.8266,0.197011 1.07038,0.906841 0.73215,2.13183 -0.39309,1.42363 -1.19834,2.223717 -2.68132,2.664111 -1.59305,0.47308 -2.85569,0.50788 -4.26173,0.11746 -0.55935,-0.15532 -1.06708,-0.23231 -1.12829,-0.17111 -0.0612,0.0612 0.1923,0.7744 0.56334,1.58487 1.98677,4.339674 1.11576,8.600264 -2.13452,10.441244 -1.26999,0.71932 -4.10583,0.82224 -5.58833,0.20281 -0.77325,-0.32308 -1.25918,-0.34592 -2.5712,-0.12082 -0.96193,0.16503 -2.20722,0.19105 -3.07182,0.0642 -1.12126,-0.16455 -1.75713,-0.10859 -2.77813,0.24447 -1.70309,0.58894 -3.35014,0.58054 -5.10628,-0.026 z m 5.69164,-0.70144 c 2.56837,-0.96673 3.77758,-1.74438 6.12286,-3.93767 1.14131,-1.06734 2.50961,-2.09773 3.04069,-2.28977 1.1917,-0.43092 1.21875,-0.65914 0.10568,-0.89137 -2.49402,-0.52036 -3.00847,-0.48021 -4.60069,0.35907 -0.85298,0.44961 -1.76985,0.81773 -2.03749,0.81805 -0.26764,2.6e-4 -1.00734,0.53634 -1.64377,1.19119 -1.07822,1.1094 -1.88368,1.45398 -2.33762,1.00004 -0.10482,-0.10482 -0.60948,-0.15449 -1.12147,-0.11038 -0.75729,0.0653 -0.95777,-0.0226 -1.075,-0.47087 -0.0793,-0.3031 -0.24929,-0.55108 -0.37784,-0.55108 -0.52549,0 -0.17732,-0.90307 0.6779,-1.75829 0.89242,-0.89242 0.89938,-0.91613 0.33073,-1.12618 -1.24424,-0.45958 -1.34033,-0.54925 -0.4486,-0.41868 0.50932,0.0746 1.87854,0.24311 3.04271,0.37453 1.16417,0.13141 2.57098,0.43226 3.12626,0.66856 0.96715,0.41156 1.04865,0.40548 1.93895,-0.14476 1.07803,-0.66626 2.54682,-0.75455 4.45979,-0.26809 0.7276,0.18503 1.7694,0.39838 2.3151,0.47412 0.54571,0.0757 0.99219,0.25128 0.99219,0.39011 0,0.13882 -0.12188,0.17708 -0.27085,0.085 -0.14896,-0.0921 -1.03269,0.0861 -1.96384,0.396 -1.3346,0.44413 -2.14078,0.96635 -3.80828,2.46688 -1.16341,1.04692 -2.12515,1.99887 -2.1372,2.11543 -0.012,0.11657 0.42457,0.39679 0.97027,0.62272 0.54571,0.22593 1.52797,0.66106 2.18282,0.96695 0.84957,0.39685 1.73327,0.55953 3.08503,0.5679 1.68485,0.0105 2.02143,-0.0762 3.04271,-0.78364 1.62465,-1.12535 2.60351,-3.12862 2.60351,-5.32823 0,-2.06498 -0.50386,-3.61302 -2.03174,-6.242294 -0.65428,-1.125932 -1.14121,-2.192338 -1.08206,-2.369788 0.0592,-0.177451 0.33747,0.146976 0.61848,0.720947 0.60901,1.243887 1.69014,1.663041 4.3474,1.685481 2.96483,0.025 4.7625,-1.303473 4.7625,-3.519575 0,-0.587632 -0.11542,-0.687618 -0.79375,-0.687618 -0.43656,0 -0.79375,-0.119062 -0.79375,-0.264583 0,-0.145521 -0.23813,-0.264584 -0.52917,-0.264584 -0.35277,0 -0.52916,0.17639 -0.52916,0.529167 0,0.309832 -0.17639,0.529167 -0.42556,0.529167 -0.32181,0 -0.38509,0.161258 -0.25954,0.661458 0.15579,0.62072 0.10257,0.661458 -0.8641,0.661458 -1.31949,0 -3.06413,-0.617164 -4.20541,-1.487662 -2.04821,-1.562243 -3.17828,-3.932023 -4.06418,-8.522607 -0.82352,-4.267428 -2.10352,-6.453153 -3.04712,-5.203272 -0.21972,0.291041 -0.48494,0.677229 -0.58938,0.858194 -0.15057,0.260903 -0.64029,0.263381 -2.36524,0.01197 -1.70223,-0.248103 -2.50576,-0.246731 -3.69459,0.0063 -1.34296,0.285845 -1.54996,0.27314 -1.78384,-0.109484 -0.14552,-0.238069 -0.46159,-0.685592 -0.70237,-0.994496 -0.42646,-0.547125 -0.4517,-0.549042 -0.97643,-0.07417 -0.74037,0.670027 -1.27618,2.374573 -1.90504,6.060333 -0.29372,1.721511 -0.76932,3.758893 -1.0569,4.527513 -0.97983,2.618822 -3.06647,4.429328 -5.56542,4.828929 -1.00153,0.160149 -1.10691,0.128836 -0.94923,-0.28206 0.12584,-0.327945 0.0233,-0.502488 -0.35289,-0.600874 -0.29165,-0.07626 -0.53026,-0.288794 -0.53026,-0.472285 0,-0.183488 -0.1786,-0.481838 -0.39688,-0.662995 -0.31692,-0.263017 -0.47812,-0.261948 -0.80014,0.0053 -0.2218,0.184076 -0.47874,0.259217 -0.57097,0.166984 -0.26182,-0.261835 -0.87785,0.368432 -0.87785,0.898128 0,0.690623 1.29068,2.1181 2.29426,2.53742 0.88637,0.37035 3.95148,0.44829 5.09157,0.12947 0.37517,-0.10491 0.86021,-0.605027 1.1749,-1.211423 0.29477,-0.56801 0.58002,-0.900528 0.63389,-0.738925 0.13621,0.40863 -0.58686,1.73809 -1.5288,2.810902 -2.55984,2.915504 -2.7532,7.224424 -0.44201,9.850074 2.18587,2.48327 5.13646,3.10666 8.57623,1.81193 z m 2.19163,-20.155227 c 0,-0.150257 0.17859,-0.421412 0.39687,-0.60257 0.28809,-0.239093 0.39688,-0.872188 0.39688,-2.309662 0,-1.651553 -0.0659,-1.955006 -0.39688,-1.82799 -0.44957,0.172516 -0.54532,-0.237289 -0.11725,-0.501851 0.36802,-0.227449 1.57246,0.08116 1.57246,0.402907 0,0.138182 -0.17859,0.182706 -0.39687,0.09894 -0.33065,-0.126881 -0.39688,0.172966 -0.39688,1.79674 0,1.662494 0.0778,1.997626 0.52917,2.27951 0.29104,0.181758 0.52917,0.455274 0.52917,0.607814 0,0.154144 -0.25782,0.09676 -0.5804,-0.12918 -0.52459,-0.367435 -0.62635,-0.364934 -1.05833,0.02601 -0.26287,0.237886 -0.47794,0.309586 -0.47794,0.159329 z m -4.7625,-4.57132 c -0.29421,-0.190135 -0.13346,-0.25753 0.62147,-0.260533 0.56009,-0.0021 1.42755,-0.198231 1.92769,-0.435562 0.50014,-0.237331 0.98235,-0.35851 1.07157,-0.269285 0.21199,0.211987 -2.00948,1.217824 -2.69469,1.220102 -0.29104,0.0011 -0.70776,-0.113657 -0.92604,-0.254722 z m 8.56458,-0.11652 c -0.45548,-0.198215 -0.90899,-0.491212 -1.00781,-0.651102 -0.23858,-0.386033 -0.0907,-0.367025 0.81351,0.104534 0.41681,0.217384 1.27089,0.395978 1.89794,0.396875 0.69233,0.0011 1.07587,0.105542 0.97657,0.266213 -0.23106,0.373864 -1.70013,0.309996 -2.68021,-0.11652 z m -0.41896,24.763267 c 0.23702,-0.15038 0.016,-0.36225 -0.72761,-0.69759 -1.03026,-0.46458 -1.10542,-0.46473 -2.12634,-0.004 -0.58209,0.26248 -1.05834,0.57822 -1.05834,0.70164 0,0.287 3.46001,0.28727 3.91229,2.6e-4 z m -7.61512,-4.27454 c 0.33137,-0.17735 0.55008,-0.17735 0.65968,0 0.33788,0.54669 1.45874,0.28343 1.77817,-0.41765 0.17114,-0.37562 0.83428,-0.9488 1.47364,-1.27373 l 1.16246,-0.59078 -1.61158,-0.48795 c -1.36077,-0.41201 -1.77573,-0.43877 -2.66624,-0.17197 -1.22038,0.36564 -2.70169,1.5798 -2.18653,1.7922 0.18191,0.075 0.33073,0.42409 0.33073,0.77577 0,0.69085 0.28188,0.79037 1.05967,0.37411 z m 18.0246,-18.927984 c -0.66255,-0.287637 -0.82193,-0.471998 -0.62007,-0.717249 0.53898,-0.654841 0.6621,-2.722375 0.21374,-3.589402 -0.23192,-0.448503 -0.42169,-1.238092 -0.42169,-1.754641 0,-0.570261 -0.12991,-0.942639 -0.33073,-0.947983 -0.36564,-0.0097 0.77745,-1.049531 1.15379,-1.049531 0.1294,0 0.23528,0.1649 0.23528,0.366445 0,0.201545 0.29518,0.559854 0.65595,0.796242 1.65241,1.082705 2.00741,3.657211 0.8156,5.914917 -0.40329,0.763984 -0.75055,1.384403 -0.77168,1.378707 -0.0211,-0.0057 -0.43971,-0.184574 -0.93019,-0.397505 z m 1.02407,-0.231958 c 0,-0.06086 -0.0714,-0.296804 -0.15874,-0.524322 -0.12254,-0.319336 -0.27507,-0.351412 -0.66887,-0.140655 -0.60146,0.321889 -0.41774,0.775629 0.31406,0.775629 0.28245,0 0.51355,-0.04979 0.51355,-0.110652 z m 1.10025,-2.498346 c 0.10639,-1.772095 -0.53668,-3.491571 -1.49829,-4.006208 -1.19241,-0.638158 -1.55938,0.462035 -0.77525,2.324225 0.27534,0.653889 0.35968,1.353527 0.25157,2.0868 -0.14995,1.017088 -0.12035,1.092052 0.37954,0.96133 0.34928,-0.09134 0.54531,-0.01312 0.55098,0.219805 0.0157,0.646353 1.04744,-0.852779 1.09145,-1.585952 z M 149.9059,79.33107 c 0.0899,-0.145521 0.0445,-0.264584 -0.10106,-0.264584 -0.14552,0 -0.33817,0.119063 -0.42811,0.264584 -0.0899,0.145521 -0.0444,0.264583 0.10107,0.264583 0.14552,0 0.33816,-0.119062 0.4281,-0.264583 z m -24.47396,6.373185 c -1.11878,-0.592772 -2.49045,-1.209095 -2.74989,-1.235596 -0.16105,-0.01646 -0.55157,-0.04804 -0.86783,-0.07021 -0.79896,-0.05599 -2.20311,-1.298173 -2.20311,-1.948975 0,-0.555856 0.25588,-0.562247 2.05052,-0.05121 0.79346,0.225945 0.80904,-0.556634 0.0276,-1.388404 l -0.56768,-0.60427 0.63383,-0.240312 c 1.17003,-0.44361 1.94831,-0.245386 2.03698,0.518804 0.0486,0.418705 0.32439,0.802797 0.69904,0.9735 0.52044,0.237129 0.71429,0.180301 1.21955,-0.357524 1.02942,-1.095762 1.79737,0.125674 0.89185,1.418489 -0.22914,0.327143 -0.3962,1.038245 -0.37124,1.580225 0.0812,1.763726 0.0338,1.84707 -0.79965,1.40548 z m 0.60872,-1.015373 c -0.25815,-1.682229 -0.40359,-1.949124 -1.40747,-2.582844 -0.6111,-0.385774 -1.05333,-0.87119 -1.05333,-1.156202 0,-0.391031 -0.18886,-0.484823 -0.92567,-0.459702 -1.01348,0.03455 -1.13357,0.191718 -0.52954,0.693019 0.21828,0.181157 0.39688,0.552923 0.39688,0.826147 0,0.286678 0.19582,0.507923 0.46302,0.523143 0.30106,0.01715 0.23165,0.09572 -0.19844,0.224629 -0.39817,0.119342 -1.01659,0.05619 -1.55367,-0.158665 -1.12924,-0.451744 -1.35675,-0.448264 -1.35675,0.02075 0,0.749323 1.3264,1.474412 2.69713,1.474412 0.71657,0 1.23697,0.106598 1.15645,0.236884 -0.13775,0.222887 1.48993,1.042768 2.129,1.072398 0.1732,0.008 0.24815,-0.285392 0.18239,-0.713969 z m 0.61041,-2.599059 c 0.094,-0.374457 0.0577,-0.793989 -0.0806,-0.932294 -0.36025,-0.360242 -1.19243,0.635673 -0.98433,1.177985 0.25411,0.6622 0.87288,0.519441 1.06491,-0.245691 z m 17.31799,-4.580402 c -0.29486,-0.550967 -1.31125,-0.931241 -2.52983,-0.946522 -0.66651,-0.0084 -0.7834,-0.106734 -0.72922,-0.613707 0.0565,-0.528769 -0.002,-0.568324 -0.46849,-0.318494 -0.67458,0.361023 -1.11951,0.09895 -0.91673,-0.539973 0.11307,-0.356239 -0.0479,-0.599313 -0.58455,-0.882576 l -0.74059,-0.39093 0.74483,-0.285783 c 0.40965,-0.157181 0.85614,-0.285783 0.99219,-0.285783 0.13604,0 0.24736,-0.22962 0.24736,-0.510268 0,-1.124949 1.51363,-1.813713 1.77653,-0.808392 0.0767,0.293383 0.27393,0.517401 0.43825,0.497818 0.70725,-0.08429 0.96022,0.0591 0.96022,0.54427 0,0.382072 0.24312,0.562788 0.93068,0.691775 0.89419,0.16775 1.97973,1.161537 1.97973,1.81239 0,0.335817 1.34734,1.21199 1.86374,1.21199 0.17979,0 0.48505,-0.208359 0.67837,-0.46302 0.19331,-0.254662 0.35527,-0.328772 0.3599,-0.164689 0.005,0.164083 -0.17973,0.454474 -0.40968,0.645313 -0.41354,0.343214 -0.55673,0.318085 -2.25702,-0.396093 -0.31268,-0.131334 -0.54496,0.07136 -0.87231,0.761204 -0.49234,1.037536 -1.05373,1.206895 -1.46338,0.44147 z m 1.0054,-0.449235 c 0.0526,-0.278983 0.26096,-0.602455 0.46302,-0.718826 1.13017,-0.650896 -0.38836,-2.440161 -2.03431,-2.397002 -0.8539,0.02239 -0.99162,-0.03878 -0.74805,-0.332262 0.16419,-0.197837 0.22446,-0.552713 0.13394,-0.788612 -0.14735,-0.38399 -0.22749,-0.387698 -0.76515,-0.03541 -0.57215,0.374889 -0.60018,0.360602 -0.59262,-0.302065 0.0114,-0.99554 -0.72867,-0.889487 -1.03443,0.148242 -0.16441,0.557972 -0.46299,0.89761 -0.88143,1.002632 -0.61897,0.155352 -0.61183,0.173051 0.32652,0.809837 0.52763,0.358057 1.0731,0.651013 1.21216,0.651013 0.34376,0 0.32026,0.456268 -0.0348,0.675707 -0.20686,0.127843 -0.20633,0.259082 0.002,0.467296 0.20965,0.209647 0.40632,0.17273 0.71286,-0.133806 0.38805,-0.388056 0.46507,-0.381599 0.92415,0.07748 0.27549,0.27545 0.73898,0.500818 1.03002,0.500818 0.29104,0 0.51507,0.0893 0.49784,0.198438 -0.15114,0.957229 0.60913,1.127439 0.78843,0.176512 z m -4.79203,-2.116826 c -0.25214,-0.252137 -0.75763,0.156263 -0.56973,0.460296 0.11169,0.180711 0.25968,0.176146 0.4497,-0.01387 0.15577,-0.155775 0.20979,-0.356666 0.12003,-0.446423 z m -12.37091,0.88198 c -0.001,-0.392449 -0.29413,-0.763707 -0.85989,-1.089477 l -0.85823,-0.494165 0.62385,-0.235468 c 0.34311,-0.129507 0.95633,-0.210133 1.3627,-0.179168 0.97047,0.07395 1.54193,-0.424567 1.39111,-1.213534 -0.16054,-0.839813 0.3358,-1.096831 1.12258,-0.581306 0.35229,0.230825 0.88874,0.419681 1.19213,0.419681 0.62873,0 2.11284,0.706752 2.11284,1.006163 0,0.109352 -0.32742,0.566648 -0.7276,1.016213 -0.40019,0.449564 -0.86387,1.041645 -1.03041,1.315736 -0.25828,0.425074 -0.38419,0.449719 -0.85631,0.167617 -0.75898,-0.453508 -2.2772,-0.416 -2.67735,0.06615 -0.47263,0.569484 -0.79349,0.489438 -0.79542,-0.198438 z m 0.92772,-0.198437 c 0.0899,-0.145521 0.63656,-0.264583 1.21473,-0.264583 1.24977,0 2.57031,-0.514379 3.23382,-1.259638 0.46582,-0.523209 0.46218,-0.551274 -0.12501,-0.962559 -0.91539,-0.641163 -2.06947,-0.507273 -3.3975,0.39416 -0.82582,0.560545 -1.41714,0.775257 -1.92988,0.700758 -0.94657,-0.137531 -1.21852,0.263718 -0.3299,0.486746 0.42358,0.106312 0.67228,0.353878 0.67228,0.669216 0,0.534326 0.39087,0.673724 0.66146,0.2359 z m 3.30729,0 c 0,-0.145521 -0.11204,-0.264583 -0.24897,-0.264583 -0.13693,0 -0.32255,0.119062 -0.41249,0.264583 -0.0899,0.145521 0.0221,0.264583 0.24897,0.264583 0.22687,0 0.41249,-0.119062 0.41249,-0.264583 z m -1.32292,-3.175 c 0,-0.25236 -0.81837,-0.592743 -0.9966,-0.414514 -0.0699,0.06991 -0.0574,0.30883 0.0279,0.530934 0.15276,0.398092 0.96874,0.30003 0.96874,-0.11642 z"
       id="path137"
       sodipodi:nodetypes="ccsscsssssssssssscsssssssssssssssssscscccsssscsscssssssssscsscscsscssscscsssssssssssssssssssssssssssssssssccssssssssssssssscsscsssscsscscsccsssscssssssssssssssssscsssssssssscscsccssssscsssssscccsssssssssssscsssssscscsscsssssssssscsssscssssscssssscssssccssssssscsssssssssssscssssssscsscsscsccc" />
    <path
       style="fill:#ffffff;stroke-width:0.353553"
       d="m 571.23578,322.60195 c -0.1746,-0.66765 -0.40436,-0.74461 -1.9022,-0.63709 l -1.70361,0.12228 0.11546,-4.24264 c 0.11093,-4.07638 0.0659,-4.39063 -1.14905,-8.01906 -1.82039,-5.43654 -1.56604,-8.42117 0.71764,-8.42117 3.96865,0 7.58431,6.39448 7.69657,13.6118 0.0376,2.41807 -0.096,3.11338 -0.92059,4.79252 -0.53053,1.08025 -1.34508,2.32153 -1.81012,2.75841 l -0.84552,0.79433 z"
       id="path1060"
       transform="scale(0.26458333)" />
    <path
       style="fill:#ffffff;stroke-width:0.353553"
       d="m 545.42994,293.05175 c -0.13783,-0.13784 -0.25061,-0.84347 -0.25061,-1.56808 0,-1.35475 -0.40708,-1.74667 -1.81424,-1.74667 -0.88624,0 -2.59944,-0.87525 -4.24705,-2.16976 -1.58308,-1.24381 -2.40817,-1.2742 -3.48465,-0.12833 -0.9674,1.02974 -2.0335,1.13913 -2.66641,0.27358 -0.37723,-0.51589 -0.31489,-0.73204 0.40297,-1.39733 1.38959,-1.28783 1.11053,-2.06355 -1.10772,-3.07909 -2.11569,-0.9686 -6.17478,-3.68273 -6.17478,-4.1288 0,-0.15083 0.47781,-0.37918 1.0618,-0.50745 1.4691,-0.32267 3.00103,-1.96523 3.67348,-3.93876 0.66114,-1.94035 1.47983,-2.95528 2.38384,-2.95528 0.65774,0 0.80261,0.37251 1.15136,2.96062 0.10151,0.7533 0.26367,1.44875 0.36036,1.54544 0.0967,0.0967 1.03688,-0.31016 2.08931,-0.90412 1.42572,-0.80463 2.01564,-0.97777 2.31419,-0.67922 0.56545,0.56545 0.49728,2.2289 -0.14201,3.46515 -0.64181,1.24112 -0.64087,1.24166 2.71769,1.54443 1.29347,0.1166 2.88446,0.39351 3.53553,0.61535 1.80908,0.6164 4.04223,2.2684 4.86417,3.59832 1.09412,1.77032 0.95592,2.98166 -0.51163,4.48457 -0.68785,0.70442 -1.52997,2.06347 -1.87137,3.02011 -0.59303,1.66172 -1.58305,2.3965 -2.28423,1.69532 z"
       id="path1099"
       transform="scale(0.26458333)" />
    <path
       style="fill:#ffffff;stroke-width:0.353553"
       d="m 484.60385,286.31932 c -0.12964,-0.12964 -0.2357,-0.5199 -0.2357,-0.86725 0,-1.43574 -0.82085,-2.39662 -2.69833,-3.15863 -1.04383,-0.42366 -1.89787,-0.90019 -1.89787,-1.05896 0,-0.49182 1.41629,-0.76817 2.70135,-0.52709 1.74248,0.32689 4.44398,-0.56231 7.49257,-2.46619 3.53367,-2.20681 5.68897,-3.00145 8.11556,-2.99212 3.26114,0.0125 6.85726,2.08611 6.09334,3.5135 -0.57226,1.06927 -3.20309,3.15127 -5.13956,4.06737 -2.38049,1.12615 -4.23709,1.54872 -8.40672,1.9134 -2.78286,0.24339 -3.61998,0.45088 -4.26543,1.05725 -0.8265,0.77645 -1.34778,0.93015 -1.75921,0.51872 z"
       id="path1138"
       transform="scale(0.26458333)" />
    <path
       style="fill:#ffffff;stroke-width:0.353553"
       d="m 473.11656,321.90125 c -2.38224,-0.85143 -4.27224,-1.96344 -5.22761,-3.07576 -0.66663,-0.77614 -1.1465,-0.90069 -4.50664,-1.16963 -4.38436,-0.35092 -7.37556,-1.47537 -9.07572,-3.41175 -1.09494,-1.24707 -1.38404,-2.73695 -0.5902,-3.04158 0.25352,-0.0973 1.88428,0.29771 3.62392,0.87777 2.51969,0.84016 3.61219,1.02683 5.37171,0.91786 2.35494,-0.14585 3.57695,-0.77091 2.3582,-1.20622 -1.17917,-0.42117 -1.9152,-1.27417 -1.91761,-2.22235 -0.002,-0.97916 -0.73051,-2.2306 -2.0435,-3.51267 -0.44461,-0.43415 -0.72659,-0.9217 -0.62663,-1.08345 0.29886,-0.48356 4.25692,-0.79297 5.26091,-0.41125 0.57672,0.21926 1.0174,0.72491 1.16555,1.33735 0.39602,1.63718 1.42725,2.78493 4.32926,4.81842 3.10877,2.17837 3.68346,3.07376 4.50656,7.02135 0.61705,2.95942 0.53989,4.66604 -0.21545,4.76513 -0.29168,0.0383 -1.37742,-0.23319 -2.41275,-0.60322 z"
       id="path1177"
       transform="scale(0.26458333)" />
    <path
       style="fill:#ffffff;stroke-width:0.25"
       d="m 515,415.4733 c -0.34375,-0.0623 -0.89236,-0.17187 -1.21914,-0.24349 l -0.59415,-0.13022 0.5737,-0.61067 c 0.67769,-0.72137 4.62785,-2.70329 6.25298,-3.13732 1.39799,-0.37336 2.83198,0.0187 5.86161,1.60273 3.70368,1.93641 2.72737,2.43479 -5,2.55237 -2.8875,0.0439 -5.53125,0.0289 -5.875,-0.0334 z"
       id="path1255"
       transform="scale(0.26458333)" />
    <path
       style="fill:#ffffff;stroke-width:0.25"
       d="m 567.24594,326.17198 c -0.40431,-0.32738 -0.5124,-0.60126 -0.38979,-0.98759 0.2127,-0.67016 1.62028,-1.55939 2.46839,-1.55939 0.54362,0 0.71486,0.19855 1.13193,1.3125 0.27027,0.72188 0.44025,1.39688 0.37771,1.5 -0.0625,0.10313 -0.76959,0.1875 -1.57124,0.1875 -1.03467,0 -1.61986,-0.13143 -2.017,-0.45302 z"
       id="path1294"
       transform="scale(0.26458333)" />
    <path
       style="fill:#ffffff;stroke-width:0.25"
       d=""
       id="path1333"
       transform="scale(0.26458333)" />
    <path
       style="fill:#ffffff;stroke-width:0.0625"
       d="m 528.08679,285.3497 c -0.28569,-0.1742 -0.47768,-0.48035 -0.5096,-0.81259 -0.1058,-1.1011 1.53847,-2.03547 2.1995,-1.24988 0.21105,0.25081 0.21184,0.58497 0.002,0.99834 -0.21261,0.41957 -0.54986,0.78167 -0.93235,1.00106 -0.37065,0.2126 -0.49745,0.22313 -0.75992,0.0631 z"
       id="path1372"
       transform="scale(0.26458333)" />
    <path
       style="fill:#ffffff;stroke-width:0.0625"
       d="m 496.93753,286.71103 c -0.24713,-0.0985 -0.43753,-0.31218 -0.43753,-0.49094 0,-0.47308 0.79568,-1.19381 1.48129,-1.34175 0.56808,-0.12258 1.21594,0.60068 1.01484,1.13295 -0.1768,0.46794 -0.76689,0.77276 -1.48285,0.766 -0.23074,-0.002 -0.48983,-0.032 -0.57575,-0.0663 z"
       id="path1411"
       transform="scale(0.26458333)" />
    <path
       style="fill:#ffffff;stroke-width:0.0625"
       d="m 491.625,275.13421 c -0.78173,-0.17824 -1.13735,-0.55641 -1.34283,-1.42799 -0.11355,-0.48165 -0.1201,-1.08967 -0.014,-1.29997 0.0434,-0.0859 0.17653,-0.19129 0.29595,-0.23411 0.82401,-0.29551 3.08406,0.67602 3.41497,1.46799 0.13019,0.31158 0.0137,0.66995 -0.32307,0.9938 -0.46684,0.44895 -1.32695,0.66081 -2.03103,0.50028 z"
       id="path1450"
       transform="scale(0.26458333)" />
    <path
       style="fill:#ffffff;stroke-width:0.125"
       d="m 475.68744,312.45784 c -0.50745,-0.30947 -1.06244,-1.3549 -1.06244,-2.00132 0,-1.12654 0.91863,-2.72131 2.03222,-3.52799 0.67016,-0.48546 1.37692,-0.47616 1.74809,0.023 0.52356,0.70412 0.4749,2.84354 -0.0929,4.08376 -0.67188,1.46758 -1.66691,2.00681 -2.62498,1.42254 z"
       id="path1489"
       transform="scale(0.26458333)" />
    <path
       style="fill:#ffffff;stroke-width:0.125"
       d="m 491.91578,417.6252 c -0.20597,-0.0305 -0.88013,-0.12354 -1.49812,-0.20684 -8.78214,-1.18377 -17.06185,-7.82325 -20.33005,-16.3026 -2.77758,-7.20644 -2.16369,-15.95717 1.63881,-23.36065 1.27769,-2.48767 2.54964,-4.33667 4.87014,-7.07962 2.11509,-2.50016 4.31419,-6.04379 5.01538,-8.0818 0.3116,-0.90567 0.33871,-2.12035 0.0495,-2.21874 -0.26882,-0.0915 -1.17179,0.97787 -1.85466,2.19634 -1.50478,2.68503 -2.99934,4.46769 -4.24202,5.05972 -1.39538,0.66479 -4.66574,1.00707 -9.3152,0.97496 -4.86673,-0.0336 -8.59967,-0.46683 -10.40063,-1.207 -3.10844,-1.27753 -7.24686,-5.34087 -8.39397,-8.24167 -0.42966,-1.0865 -0.38996,-1.77298 0.1652,-2.85714 0.76098,-1.4861 1.9398,-2.28725 2.65839,-1.80671 0.42454,0.2839 1.15916,0.19297 1.77004,-0.21909 0.25452,-0.17168 0.71189,-0.48159 1.01638,-0.68869 0.7364,-0.50086 1.2868,-0.49385 2.05616,0.0262 0.92938,0.62822 1.67757,1.68063 1.86904,2.62902 0.2062,1.02131 0.74448,1.50497 2.24108,2.01365 1.2285,0.41756 1.5069,0.97592 1.08521,2.17649 -0.39741,1.13144 -0.0486,1.52579 1.24638,1.40924 1.19268,-0.10735 3.54493,-0.49635 4.58134,-0.75764 8.25404,-2.08093 15.09828,-8.33495 18.62527,-17.01914 1.29538,-3.18949 2.8461,-9.72241 4.515,-19.02098 2.0334,-11.32946 3.50549,-16.64195 5.53037,-19.95814 0.5573,-0.9127 1.68478,-2.1256 2.5453,-2.73813 0.71665,-0.51013 1.06353,-0.45841 1.71666,0.25591 0.65111,0.71212 2.10354,2.66596 3.17305,4.26846 0.9867,1.47844 1.23915,1.61607 2.80846,1.53112 0.62341,-0.0337 2.36246,-0.30349 3.86454,-0.59944 3.7284,-0.73458 4.74647,-0.82627 7.96027,-0.71687 2.13912,0.0728 3.53228,0.20708 6.7526,0.65074 4.75117,0.65458 7.25326,0.78431 7.99646,0.41463 0.32719,-0.16275 0.71172,-0.62694 1.50405,-1.81565 0.58546,-0.87835 1.28975,-1.8556 1.56509,-2.17167 1.48799,-1.70809 3.15429,-1.31221 4.89403,1.16272 2.46848,3.51162 4.40941,9.34885 6.44195,19.37379 1.86518,9.19943 3.67023,15.16245 6.08155,20.0905 3.95359,8.07999 9.56139,13.09978 17.59736,15.75219 2.98705,0.98593 5.30983,1.3559 8.2412,1.31265 1.82234,-0.0269 2.07743,-0.0573 2.39034,-0.28548 0.46248,-0.33717 0.50295,-0.83863 0.18984,-2.35229 -0.13543,-0.65469 -0.24514,-1.30638 -0.24381,-1.4482 0.004,-0.43164 0.55693,-0.86625 1.0962,-0.86172 1.03081,0.009 1.59221,-0.68376 1.75845,-2.16878 0.0819,-0.7313 0.15758,-0.92568 0.50585,-1.29863 0.3879,-0.41537 0.45825,-0.4403 1.32859,-0.47077 1.12986,-0.0396 1.68947,0.20724 1.99756,0.88098 0.30874,0.67514 0.91037,0.87601 3.04385,1.01628 1.9405,0.12757 2.41505,0.28181 2.71924,0.88384 0.40793,0.80733 0.32961,3.13231 -0.1719,5.10293 -0.52659,2.06914 -2.00929,4.40201 -3.68856,5.80354 -3.71215,3.09818 -9.0651,4.35484 -16.70282,3.92117 -5.37624,-0.30526 -8.15531,-0.99028 -10.43606,-2.57242 -1.24481,-0.86352 -2.10726,-1.92943 -3.13418,-3.87359 -0.66116,-1.25169 -1.52936,-2.52185 -1.79559,-2.62688 -0.50333,-0.19859 -0.59385,-0.11016 -0.52341,0.51128 0.13682,1.20709 1.60316,4.28662 4.45696,9.36029 5.59037,9.93891 7.26541,15.25348 7.20107,22.84754 -0.0299,3.52455 -0.37874,5.68468 -1.39766,8.65375 -1.71631,5.00121 -4.72978,8.96091 -8.98004,11.79977 -3.44326,2.29984 -5.26159,2.68446 -11.75504,2.48643 -5.64731,-0.17222 -7.34109,-0.55454 -12.11867,-2.73542 -1.23228,-0.56252 -3.5571,-1.59184 -5.16627,-2.28739 -3.0696,-1.32681 -4.50422,-2.08178 -5.04132,-2.65303 l -0.32177,-0.34223 0.62274,-0.72902 c 1.44722,-1.69421 8.12737,-7.89985 11.30459,-10.50158 4.3875,-3.59279 7.67035,-5.30809 12.88325,-6.73155 2.90328,-0.79279 3.71243,-0.90489 5.5074,-0.76302 0.52599,0.0416 0.56476,0.0233 0.60335,-0.28445 0.0296,-0.23613 -0.0528,-0.40431 -0.29228,-0.59633 -0.47755,-0.38295 -2.01285,-0.85175 -3.60512,-1.10082 -2.0296,-0.31748 -4.36363,-0.79291 -7.86032,-1.60112 -4.29547,-0.99283 -6.01686,-1.24929 -8.61334,-1.28324 -4.00846,-0.0524 -6.20757,0.50405 -9.49562,2.40278 -2.64609,1.52802 -3.23633,1.63316 -5.13907,0.91544 -4.91297,-1.85318 -8.04464,-2.53389 -15.86543,-3.44852 -1.99165,-0.23292 -5.21093,-0.63179 -7.15395,-0.88639 -3.93487,-0.51558 -4.31403,-0.54356 -4.24556,-0.31332 0.0673,0.22619 0.89671,0.61863 3.04459,1.44051 2.00973,0.76901 2.35817,1.00252 2.22981,1.49433 -0.0432,0.16546 -0.95903,1.23073 -2.03523,2.36727 -2.1878,2.31045 -2.87864,3.19621 -3.5335,4.53041 -0.84308,1.71767 -0.75402,2.54937 0.30619,2.85939 0.51838,0.15158 0.64108,0.25679 0.9629,0.82564 0.20285,0.35856 0.45245,0.94405 0.55468,1.3011 0.22055,0.77032 0.54564,1.22458 1.0825,1.51259 0.42042,0.22555 0.9348,0.25206 4.21516,0.21726 2.02024,-0.0214 2.53393,0.0764 3.33817,0.63545 0.71776,0.49898 1.46836,0.60874 2.41972,0.35383 1.6966,-0.45459 3.21057,-1.52248 6.13267,-4.32571 3.2533,-3.12095 4.82404,-4.24297 6.36988,-4.55019 1.51231,-0.30054 3.258,-1.00601 7.14496,-2.88742 2.072,-1.00291 4.17292,-1.96218 4.66871,-2.1317 2.97351,-1.01671 6.32143,-0.87423 12.84509,0.54666 2.87401,0.62597 3.65365,1.06779 3.00595,1.70345 -0.35727,0.35062 -1.43679,0.8999 -2.81003,1.42978 -2.69609,1.04032 -6.72324,4.08705 -13.08183,9.89703 -6.24309,5.70443 -9.81313,8.28149 -14.97158,10.80735 -5.66513,2.77395 -10.90035,4.52307 -15.53995,5.19197 -1.19906,0.17287 -5.47069,0.29656 -6.25197,0.18104 z m 24.17775,-78.41721 c 0.17107,-0.11484 0.6742,-0.50861 1.11807,-0.87506 1.32731,-1.09579 1.6524,-1.11354 3.14631,-0.1718 1.3734,0.86577 1.80071,1.06546 2.28978,1.07005 0.40567,0.004 0.44274,-0.0262 0.44588,-0.36112 0.004,-0.45534 -0.61116,-1.29993 -1.36114,-1.86795 -0.30523,-0.23118 -0.73383,-0.56057 -0.95245,-0.73198 -1.2474,-0.97804 -1.49352,-1.98213 -1.59554,-6.50936 -0.0889,-3.94718 0.0617,-7.26947 0.36121,-7.96747 0.25082,-0.58448 0.4537,-0.66198 1.23836,-0.47309 0.48696,0.11722 0.69549,0.11617 0.95414,-0.005 1.11054,-0.51952 -0.23368,-1.69409 -2.48564,-2.17194 -1.80658,-0.38334 -2.81587,-0.24258 -3.6346,0.50688 -0.40886,0.37427 -0.50729,0.55182 -0.52432,0.94575 -0.0174,0.40179 0.0351,0.5177 0.30612,0.67572 0.28271,0.16487 0.42196,0.16891 1.02666,0.0298 0.8594,-0.19766 1.00237,-0.10685 1.26503,0.80351 0.2741,0.95004 0.40195,6.41378 0.21836,9.33123 -0.22287,3.54141 -0.48793,4.42332 -1.69444,5.63775 -0.67515,0.67957 -1.32153,1.83603 -1.20333,2.15291 0.0925,0.24797 0.69969,0.23727 1.08154,-0.019 z m -13.57924,-16.71337 c 2.46983,-0.65497 6.79731,-2.62022 7.87184,-3.57486 0.50841,-0.45168 0.56049,-0.54243 0.41433,-0.72193 -0.0919,-0.11292 -0.29064,-0.20647 -0.44155,-0.20789 -0.53508,-0.005 -2.03216,0.4486 -3.54012,1.07267 -2.78807,1.15384 -4.52892,1.54476 -7.59705,1.70597 -1.15734,0.0608 -2.24114,0.16115 -2.40845,0.22297 -1.30101,0.48072 1.94876,1.992 3.9478,1.8359 0.38832,-0.0303 1.17726,-0.1801 1.7532,-0.33283 z m 35.91781,0.0784 c 0.88642,-0.25773 1.217,-0.51354 1.17494,-0.9092 -0.023,-0.21619 -0.15179,-0.39208 -0.36249,-0.49502 -0.41555,-0.20301 -2.32958,-0.42465 -3.81154,-0.44136 -1.25907,-0.0142 -3.60039,-0.39668 -4.96751,-0.8115 -0.48334,-0.14666 -1.64688,-0.63985 -2.58564,-1.09599 -0.93876,-0.45614 -1.94166,-0.86308 -2.22866,-0.90432 l -0.52182,-0.075 0.0871,0.36349 c 0.2013,0.83987 1.08764,1.63482 2.93619,2.63346 1.77934,0.96125 4.18776,1.66008 6.65497,1.931 0.86939,0.0955 3.02313,-0.0207 3.62444,-0.19558 z"
       id="path2429"
       transform="scale(0.26458333)" />
    <path
       style="fill:#ffffff;stroke-width:0.125"
       d="m 503.33351,399.8024 c -0.66592,-0.10972 -1.16106,-0.39142 -1.64865,-0.93798 -0.70148,-0.78632 -1.22265,-0.77089 -3.03407,0.0898 -2.65624,1.26213 -3.37358,0.93164 -3.53341,-1.62794 -0.0845,-1.35358 -0.41368,-2.17618 -1.12563,-2.81304 l -0.5807,-0.51946 0.28064,-0.56612 c 0.62963,-1.2701 3.58524,-3.53489 6.24639,-4.78641 1.4865,-0.69908 3.41872,-1.27564 4.88009,-1.45618 1.2908,-0.15946 2.7325,0.005 4.836,0.55192 1.57016,0.40818 7.92309,2.30438 8.17401,2.43973 0.0864,0.0466 -0.73456,0.53119 -1.88552,1.11305 -3.54851,1.7939 -4.76499,2.59173 -6.32006,4.14501 -0.48702,0.48646 -1.0511,1.18587 -1.25351,1.55425 -0.53103,0.96645 -1.01105,1.52818 -1.67297,1.95774 -1.08389,0.70339 -2.3426,1.02367 -3.36261,0.85561 z"
       id="path2544"
       transform="scale(0.26458333)" />
  </g>
</svg>
